<svg width="661" height="479" viewBox="0 0 661 479" fill="none" xmlns="http://www.w3.org/2000/svg">
<g clip-path="url(#clip0)">
<path opacity="0.1" d="M766 331.126C766.054 311.785 761.459 292.715 752.602 275.524C743.746 258.333 730.887 243.526 715.112 232.351C715.548 228.173 715.772 223.975 715.781 219.775C715.781 153.348 662.724 99.4985 597.266 99.4985C577.11 99.4769 557.291 104.68 539.742 114.601C493.414 84.1014 432.931 65.6422 366.763 65.6422C259.101 65.6422 166.491 114.52 125.406 184.605C123.122 184.471 120.826 184.397 118.509 184.397C53.0643 184.397 -0.00669765 238.247 -0.00669765 304.673C-0.0531752 328.141 6.72378 351.116 19.4982 370.798V370.798C19.4982 430.564 75.8702 479.007 145.379 479.007H649.654C704.251 479.007 748.511 440.969 748.511 394.041C759.995 375.071 766.045 353.305 766 331.126Z" fill="white"/>
<path d="M554.801 109.971C549.752 112.102 544.69 114.239 539.99 117.053C537.854 118.326 535.805 119.733 533.609 120.892C531.245 122.152 528.734 123.103 526.243 124.122C519.37 126.931 512.694 130.204 506.263 133.918C506.819 126.715 505.768 118.889 501.462 113.274C500.83 112.442 500.126 111.666 499.36 110.956C496.313 108.128 491.994 107.398 489.001 104.926C490.822 101.723 494.867 98.8151 497.619 96.3695C500.592 93.7385 503.676 91.2438 506.872 88.8853C513.26 84.1647 520.062 80.0317 527.194 76.5368C531.72 74.319 536.448 72.3357 541.443 71.659C542.072 71.5172 542.73 71.5758 543.324 71.8265C544.101 72.2553 544.382 73.2202 544.57 74.0845C545.5 78.4062 545.976 82.8417 546.753 87.1969C547.133 89.4351 547.65 91.648 548.299 93.8234C549.134 96.3961 550.097 98.9253 551.185 101.401C552.395 104.256 553.6 107.112 554.801 109.971Z" fill="#FBBEBE"/>
<path d="M411.504 232.103C411.502 240.997 408.693 249.664 403.477 256.866C398.261 264.068 390.905 269.437 382.459 272.207C374.013 274.977 364.908 275.007 356.444 272.292C347.979 269.577 340.589 264.256 335.326 257.088C330.001 249.848 327.131 241.093 327.137 232.103C327.137 220.908 331.581 210.171 339.492 202.255C347.403 194.339 358.133 189.891 369.32 189.891C380.508 189.891 391.238 194.339 399.149 202.255C407.06 210.171 411.504 220.908 411.504 232.103Z" fill="#BE6F72"/>
<path d="M354.208 269.303C356.465 273.195 358.741 277.122 360.187 281.363C361.634 285.604 362.196 290.301 361.004 294.636C375.374 287.065 392.475 287.675 408.29 283.842C408.713 283.794 409.103 283.588 409.382 283.266C409.478 283.046 409.527 282.809 409.527 282.569C409.527 282.329 409.478 282.092 409.382 281.872C406.071 269.612 404.797 256.891 405.612 244.217L397.356 249.101C393.742 251.335 389.997 253.349 386.14 255.132C380.683 257.524 374.891 258.971 369.193 260.646C364.68 261.986 355.721 263.721 352.882 267.668C353.394 268.152 353.84 268.701 354.208 269.303V269.303Z" fill="#BE6F72"/>
<path d="M330.967 212.538C328.222 213.644 324.994 214.917 322.47 213.369C320.615 212.223 319.852 209.845 319.966 207.667C320.08 205.49 320.91 203.426 321.566 201.349C322.905 197.081 323.628 192.639 325.121 188.391C326.615 184.143 329.052 180.049 332.922 177.804C340.046 173.677 349.267 177.087 357.174 174.803C360.522 173.844 363.435 171.915 366.548 170.4C369.662 168.886 373.164 167.72 376.525 168.531C380.462 169.449 383.368 172.766 387.038 174.454C391.055 176.303 395.863 176.176 399.519 178.648C402.11 180.404 403.744 183.238 405.197 186.019C409.845 194.955 413.516 204.368 416.144 214.093C417.195 217.575 417.796 221.178 417.932 224.813C417.965 229.463 416.707 234.019 415.461 238.508L413.453 245.611C412.709 248.291 411.946 250.971 410.54 253.396C409.134 255.822 406.964 257.865 404.279 258.569C400.931 259.433 397.034 257.758 395.575 254.622C394.678 252.679 394.718 250.455 394.671 248.318C394.597 244.132 394.149 239.961 393.332 235.855C392.916 233.798 392.361 231.661 390.961 230.106C389.153 228.096 386.274 227.426 383.596 227.379C380.462 227.339 377.027 228.19 375.199 230.729C373.733 232.78 373.479 235.661 371.53 237.262C370.664 237.927 369.635 238.346 368.55 238.475C366.34 238.751 364.101 238.276 362.192 237.129C360.282 235.981 358.813 234.225 358.018 232.143C357.402 230.374 357.101 228.177 355.427 227.346C354.556 226.91 353.518 226.991 352.588 226.709C349.735 225.845 348.985 222.227 348.724 219.259C348.423 215.781 349.581 208.913 345.262 208.679C340.609 208.424 335.246 211.111 330.967 212.538Z" fill="#3F3D56"/>
<path d="M341.084 258.294C339.598 259.011 337.971 259.849 337.388 261.39C337.161 261.993 337.12 262.656 336.913 263.272C335.969 265.999 332.286 266.535 330.384 268.706C329.527 269.804 328.95 271.094 328.704 272.465C327.433 277.873 327.845 283.539 329.882 288.707C330.473 290.344 331.383 291.847 332.56 293.129C335.962 296.599 341.828 296.532 346.066 294.167C350.304 291.802 353.23 287.655 355.715 283.447C357.032 281.329 358.133 279.084 359.002 276.747C359.766 274.369 360.311 271.927 360.629 269.45C362.116 259.795 364.058 249.088 363.388 239.299C361.379 239.172 357.543 239.031 355.768 240.291C353.545 241.872 354.161 245.061 353.358 247.373C351.456 252.934 345.939 255.869 341.084 258.294Z" fill="#3F3D56"/>
<path d="M342.825 259.574C340.314 259.728 335.815 256.947 333.297 257.088C331.584 254.096 330.069 250.993 328.764 247.802C330.103 245.879 332.259 245.41 335.52 247.802C338.138 249.644 341.754 256.016 342.825 259.574Z" fill="#3F3D56"/>
<path d="M380.677 153.71C377.951 155.151 376.264 155.218 374.918 154.93C373.572 154.641 370.901 155.982 370.901 155.982C347.298 164.062 346.367 167.874 346.367 167.874L373.693 158.219C378.949 155.915 379.049 156.725 379.049 156.725C383.067 160.504 388.183 157.945 388.183 157.945C388.183 157.945 395.26 154.595 393.178 151.372C391.095 148.149 383.408 152.296 380.677 153.71ZM392.059 153.107C392.059 153.107 390.051 158.467 382.826 157.596C382.826 157.596 379.277 157.074 380.777 154.427C380.777 154.427 388.142 151.332 390.091 151.553C392.039 151.774 392.039 153.134 392.039 153.134L392.059 153.107Z" fill="#E8E8F0"/>
<path opacity="0.1" d="M380.677 153.71C377.951 155.151 376.264 155.218 374.918 154.93C373.572 154.641 370.901 155.982 370.901 155.982C347.298 164.062 346.367 167.874 346.367 167.874L373.693 158.219C378.949 155.915 379.049 156.725 379.049 156.725C383.067 160.504 388.183 157.945 388.183 157.945C388.183 157.945 395.26 154.595 393.178 151.372C391.095 148.149 383.408 152.296 380.677 153.71ZM392.059 153.107C392.059 153.107 390.051 158.467 382.826 157.596C382.826 157.596 379.277 157.074 380.777 154.427C380.777 154.427 388.142 151.332 390.091 151.553C392.039 151.774 392.039 153.134 392.039 153.134L392.059 153.107Z" fill="#914646"/>
<path d="M382.176 138.769C378.092 138.903 377.242 141.958 377.242 141.958C376.424 142.934 375.945 144.15 375.876 145.422C375.807 146.694 376.152 147.954 376.86 149.013L369.608 156.229C368.234 156.76 367.053 157.694 366.22 158.91C366.22 158.91 350.298 172.98 350.532 174.26C350.532 174.26 353.13 175.6 369.608 160.571L373.934 156.739C373.934 156.739 374.891 149.576 381.647 148.216C381.647 148.216 382.317 148.511 382.672 146.916C383.051 146.151 383.555 145.456 384.165 144.859C385.062 144.028 386.261 138.628 382.176 138.769ZM383.321 143.613C383.321 143.613 381.132 149.268 378.012 147.633C374.891 145.998 377.925 142.226 377.925 142.226C383.335 136.96 383.321 143.613 383.321 143.613Z" fill="#E8E8F0"/>
<path opacity="0.1" d="M369.749 159.044C370.226 159.044 370.613 158.657 370.613 158.179C370.613 157.702 370.226 157.315 369.749 157.315C369.272 157.315 368.885 157.702 368.885 158.179C368.885 158.657 369.272 159.044 369.749 159.044Z" fill="#914646"/>
<path d="M445.311 130.849C442.791 129.52 440.174 128.383 437.484 127.445C433.907 126.43 430.233 125.801 426.523 125.569C414.801 124.452 403.043 123.805 391.249 123.626C389.167 123.626 387.038 123.579 385.062 124.296C383.298 124.974 381.7 126.022 380.375 127.372C378.081 129.566 376.258 132.206 375.019 135.13C374.62 135.863 374.502 136.715 374.684 137.529C374.952 138.306 376.023 138.822 376.632 138.273C375.074 139.53 373.929 141.227 373.346 143.143C372.763 145.06 372.77 147.107 373.365 149.02C372.435 149.506 371.647 150.224 371.076 151.105C370.505 151.985 370.17 152.998 370.104 154.045C374.972 154.947 379.983 154.704 384.741 153.335C383.321 152.973 381.855 154.306 381.768 155.767C381.777 156.501 381.989 157.218 382.381 157.839C382.772 158.459 383.327 158.96 383.984 159.285C385.312 159.914 386.775 160.204 388.243 160.129C393.914 160.129 399.432 158.206 405.089 157.958C409.415 157.764 413.874 158.548 418.006 157.288C422.8 155.801 427.078 151.586 432.02 152.464C435.964 153.167 438.535 156.832 441.106 159.901C445.217 164.799 450.3 168.766 455.341 172.699C459.225 175.727 463.283 178.836 468.097 179.861C469.538 180.254 471.066 180.181 472.463 179.653C473.63 179.028 474.61 178.103 475.302 176.973C480.491 169.603 480.498 160.323 480.196 151.687C480.042 147.271 479.078 146.675 474.994 144.846C470.253 142.715 465.53 140.533 460.825 138.3C455.629 135.87 450.458 133.386 445.311 130.849Z" fill="#FBBEBE"/>
<path d="M499.581 147.385C498.782 147.862 497.939 148.26 497.063 148.571C495.597 148.919 494.103 148.296 492.677 147.814C486.651 145.804 479.955 146.28 474.13 143.794C476.04 154.766 473.54 166.049 467.173 175.184C465.968 176.9 464.381 178.655 462.292 178.789C463.222 181.65 466.088 183.379 468.807 184.665C473.148 186.721 477.689 188.324 482.359 189.449C483.698 189.764 485.332 189.918 486.109 188.779C486.577 188.109 486.778 186.963 487.602 187.004C488.861 188.344 488.446 191.091 490.186 191.694C490.729 191.832 491.298 191.832 491.84 191.694L495.724 191.024C496.889 190.923 498.011 190.536 498.991 189.898C499.605 189.365 500.112 188.719 500.485 187.995C504.837 180.578 506.511 171.995 507.18 163.519C507.508 159.312 507.917 154.849 507.629 150.628C507.361 147.01 502.728 145.918 499.581 147.385Z" fill="#E8E8F0"/>
<path opacity="0.1" d="M499.581 147.385C498.782 147.862 497.939 148.26 497.063 148.571C495.597 148.919 494.103 148.296 492.677 147.814C486.651 145.804 479.955 146.28 474.13 143.794C476.04 154.766 473.54 166.049 467.173 175.184C465.968 176.9 464.381 178.655 462.292 178.789C463.222 181.65 466.088 183.379 468.807 184.665C473.148 186.721 477.689 188.324 482.359 189.449C483.698 189.764 485.332 189.918 486.109 188.779C486.577 188.109 486.778 186.963 487.602 187.004C488.861 188.344 488.446 191.091 490.186 191.694C490.729 191.832 491.298 191.832 491.84 191.694L495.724 191.024C496.889 190.923 498.011 190.536 498.991 189.898C499.605 189.365 500.112 188.719 500.485 187.995C504.837 180.578 506.511 171.995 507.18 163.519C507.508 159.312 507.917 154.849 507.629 150.628C507.361 147.01 502.728 145.918 499.581 147.385Z" fill="#914646"/>
<path d="M275.117 364.721C273.209 362.268 271.247 359.669 268.421 358.376C266.794 357.719 265.08 357.299 263.333 357.129C253.912 355.789 244.471 354.396 234.962 354.134C231.856 354.047 228.521 354.134 225.99 355.95C223.091 358.02 221.973 361.833 221.812 365.391C221.639 369.627 222.48 373.844 224.264 377.69C226.048 381.536 228.724 384.9 232.07 387.502C237.761 391.843 244.953 393.659 251.97 395.093C255.659 395.85 259.369 396.527 263.092 397.103C266.814 397.679 270.604 398.135 274.2 399.287C281.887 401.753 288.67 407.328 296.731 407.79C297.11 407.848 297.498 407.783 297.836 407.602C298.19 407.316 298.428 406.912 298.506 406.463C300.28 400.198 306.433 385.197 298.506 380.815C294.361 378.53 289.761 378.429 285.703 375.528C281.646 372.627 278.197 368.681 275.117 364.721Z" fill="#BE6F72"/>
<path d="M207.429 406.309C202.213 401.766 195.015 399.361 191.225 393.579C189.558 391.033 188.715 388.044 187.878 385.11L185.414 376.252C185.224 375.708 185.137 375.133 185.159 374.557C185.347 372.707 187.523 371.83 189.357 371.542C198.731 370.081 208.494 373.86 215.511 380.252C222.528 386.644 227.035 395.461 229.679 404.601C229.866 405.065 229.894 405.579 229.76 406.061C229.531 406.49 229.169 406.833 228.729 407.039C225.341 409.05 220.787 411.978 216.83 412.594C212.873 413.21 210.248 408.735 207.429 406.309Z" fill="#BE6F72"/>
<path d="M436.279 368.118L463.731 379.113C466.336 380.155 468.48 382.099 469.772 384.591C471.063 387.083 471.417 389.956 470.769 392.687L450.34 478.672H399.264L408.156 380.848C408.156 380.848 427.574 364.768 436.279 368.118Z" fill="#3F3D56"/>
<path d="M462.794 357.799C462.285 358.912 461.535 360.01 461.649 361.223C461.716 361.947 462.091 362.63 462.037 363.347C461.93 364.754 460.303 365.538 458.897 365.552C457.491 365.565 456.078 365.109 454.692 365.351C452.415 365.739 450.875 367.836 448.907 369.049C446.161 370.738 442.733 370.637 439.533 370.925C432.837 371.528 426.503 374.041 420.443 376.902C416.325 378.845 411.953 381.337 410.399 385.612C408.169 391.642 412.495 397.994 413.452 404.373C413.709 406.52 413.772 408.686 413.64 410.845C412.937 433.371 411.725 456.159 410.439 478.658L164.998 478.946L177.084 457.754C188.869 437.083 200.968 416.024 218.745 400.219C221.382 397.836 224.345 395.842 227.543 394.296L241.799 407.026C242.94 408.162 244.264 409.097 245.716 409.793C248.394 410.885 251.394 410.262 254.266 410.356C259.79 410.537 264.839 413.358 269.633 416.112C273.15 418.021 276.532 420.168 279.757 422.537C281.646 423.984 284.371 424.889 286.339 426.222L285.877 402.168C285.83 399.998 285.797 397.773 286.446 395.703C287.705 391.682 291.301 388.842 293.028 385.016C293.812 383.294 294.194 381.418 294.85 379.656C295.777 377.39 296.93 375.224 298.291 373.19L307.177 358.905C309.373 355.381 311.562 351.856 313.946 348.459C324.372 333.578 338.406 321.658 352.059 309.698C351.741 306.29 352.528 302.87 354.302 299.943C355.001 298.968 355.581 297.913 356.029 296.8C356.318 295.481 356.402 294.125 356.277 292.78C356.277 292.439 356.277 292.11 356.277 291.748C356.425 289.557 357.34 287.489 358.862 285.906C360.428 284.278 362.524 283.286 364.587 282.361C375.259 277.585 386.356 273.821 397.731 271.118C399.545 270.69 401.467 270.288 403.255 270.83C403.797 272.579 405.645 273.195 407.493 273.638L408.678 273.912C411.817 274.591 414.744 276.021 417.209 278.08C419.8 280.345 421.581 283.373 423.315 286.355C436.352 308.754 442.358 338.141 462.526 354.416C463.504 355.186 463.303 356.727 462.794 357.799Z" fill="white"/>
<path opacity="0.1" d="M545.038 82.6876C537.981 98.2121 524.074 113.509 505.915 113.509C504.432 113.51 502.951 113.436 501.476 113.288C500.843 112.456 500.14 111.68 499.373 110.969C496.326 108.142 492.008 107.412 489.015 104.939C490.836 101.736 494.88 98.8285 497.632 96.3829C500.605 93.752 503.69 91.2572 506.886 88.8988C513.274 84.1781 520.076 80.0451 527.208 76.5502C531.734 74.3324 536.461 72.3492 541.456 71.6724C542.086 71.5306 542.743 71.5892 543.338 71.8399C544.114 72.2688 544.396 73.2336 544.583 74.0979C545.514 78.3861 544.262 78.3325 545.038 82.6876Z" fill="#914646"/>
<path d="M505.915 112.162C530.691 112.162 550.777 92.0633 550.777 67.2704C550.777 42.4774 530.691 22.3788 505.915 22.3788C481.138 22.3788 461.053 42.4774 461.053 67.2704C461.053 92.0633 481.138 112.162 505.915 112.162Z" fill="#FBBEBE"/>
<path d="M599.341 216.572C598.611 221.999 597.337 227.34 595.538 232.512C594.869 234.394 594.045 236.23 593.195 238.039C588.206 248.619 585.468 260.056 584.162 271.688C584.062 272.604 583.894 273.511 583.66 274.402C582.676 278.154 580.6 281.504 579.013 285.035C577.395 288.849 576.052 292.774 574.995 296.78C574.614 297.786 574.485 298.869 574.62 299.936C574.868 301.068 575.685 301.946 576.261 302.971C579.234 308.097 575.799 314.362 574.641 320.164C574.246 322.174 574.071 324.359 572.766 325.926C571.654 327.266 569.927 327.883 568.286 328.446C544.904 336.4 520.972 342.635 496.681 347.099C493.059 347.769 489.316 348.392 485.72 347.722C482.125 347.052 478.542 344.828 477.31 341.357C476.601 339.347 476.721 337.163 476.781 335.032C476.915 330.556 476.781 326.054 476.54 321.544C475.764 306.703 474.003 291.809 477.88 277.591C479.038 273.397 480.672 269.35 481.984 265.202C484.549 257.115 485.211 248.753 485.854 240.364C486.383 233.45 486.899 226.508 488.446 219.687C489.597 214.602 488.834 209.315 488.767 204.103C488.634 192.174 492.138 180.487 498.811 170.601C499.969 168.893 501.241 167.204 501.851 165.241C502.708 162.427 502.118 159.405 501.73 156.484C500.752 149.036 501.147 141.471 502.895 134.166C503.444 131.432 504.491 128.823 505.982 126.467C507.649 124.035 510.039 122.199 512.43 120.47C526.307 110.459 541.62 102.609 557.848 97.187C559.341 100.966 560.774 105.381 561.919 109.247C562.073 109.77 562.18 110.433 561.751 110.768C561.323 111.103 560.881 110.922 560.412 110.936C559.928 110.988 559.472 111.186 559.103 111.503C558.733 111.82 558.469 112.241 558.343 112.711C558.109 113.66 558.198 114.66 558.597 115.552C559.508 117.897 561.47 119.646 563.358 121.301L572.853 129.589C573.989 130.654 575.23 131.601 576.556 132.417C577.747 133.087 579.046 133.563 580.272 134.179C585.186 136.665 588.581 141.509 590.476 146.682C592.371 151.854 591.514 158.072 593.985 162.983C602.194 179.265 602.127 198.528 599.341 216.572Z" fill="#E8E8F0"/>
<path d="M593.101 386.932C595.986 398.568 595.914 410.741 592.893 422.343C592.351 424.413 591.715 426.557 592.143 428.654C592.391 429.847 592.974 430.966 593.108 432.179C593.166 433.285 593.046 434.394 592.753 435.462C589.78 449.532 590.844 464.152 592.043 478.511C591.534 478.511 591.373 478.745 590.838 478.745H577.935C577.707 474.973 573.02 472.146 570.73 469.137C568.515 466.188 566.983 462.783 566.245 459.169C565.508 455.554 565.583 451.821 566.465 448.239C568.474 440.199 574.393 433.773 577.426 426.088C580.774 417.633 580.486 408.058 584.042 399.696C586.084 394.865 589.9 391.093 593.101 386.932Z" fill="#3F3D56"/>
<path opacity="0.1" d="M593.101 386.932C595.986 398.568 595.914 410.741 592.893 422.343C592.351 424.413 591.715 426.557 592.143 428.654C592.391 429.847 592.974 430.966 593.108 432.179C593.166 433.285 593.046 434.394 592.753 435.462C589.78 449.532 590.844 464.152 592.043 478.511C591.534 478.511 591.373 478.745 590.838 478.745H577.935C577.707 474.973 573.02 472.146 570.73 469.137C568.515 466.188 566.983 462.783 566.245 459.169C565.508 455.554 565.583 451.821 566.465 448.239C568.474 440.199 574.393 433.773 577.426 426.088C580.774 417.633 580.486 408.058 584.042 399.696C586.084 394.865 589.9 391.093 593.101 386.932Z" fill="#914646"/>
<path d="M566.023 322.442C555.055 320.687 544.429 326.214 533.836 329.571C517.653 334.697 499.835 335.012 484.883 343.059C483.548 343.702 482.337 344.578 481.308 345.645C480.094 347.149 479.331 348.965 479.105 350.885C478.437 355.129 479.257 359.473 481.428 363.18C482.359 364.761 483.531 366.215 484.254 367.91C485.968 371.93 484.823 376.567 484.528 380.962C483.859 390.778 487.662 400.333 488.425 410.142C488.881 415.924 488.285 421.834 489.644 427.475C490.494 431.013 492.095 434.35 492.758 437.928C493.42 441.505 493.132 445.003 493.353 448.541C493.976 458.678 498.59 468.528 497.465 478.625L584.51 478.913C581.283 467.677 578.598 456.058 581.524 444.742C582.539 441.163 583.801 437.66 585.3 434.256C590.168 422.484 595.17 410.678 597.855 398.229C600.54 385.78 600.781 372.486 596.234 360.587C591.172 347.32 580.412 336.285 578.069 322.281C574.051 321.745 570.047 323.086 566.023 322.442Z" fill="#3F3D56"/>
<path d="M474.672 45.374C473.829 43.6052 471.438 42.4393 469.831 43.5583C468.224 44.6772 468.432 47.1764 468.037 49.1865C467.273 53.1396 463.35 55.8331 459.332 56.4629C457.451 56.7644 455.355 56.6438 453.895 55.4244C452.955 54.5233 452.263 53.3948 451.886 52.148C447.869 41.4276 450.313 28.9115 456.888 19.558C458.283 17.4621 460.014 15.6103 462.011 14.0772C467.548 10.0571 474.953 10.0571 481.803 10.2715C483.194 10.4224 484.601 10.2598 485.921 9.79577C486.927 9.26599 487.848 8.58845 488.653 7.78569C495.141 2.07709 504.107 -0.321593 512.758 0.0603206C521.409 0.442234 529.732 3.41044 537.419 7.35688C541.095 9.23965 544.697 11.377 547.576 14.3519C554.493 21.4743 556.18 32.0272 557.539 41.8631C558.999 52.4763 560.452 63.3843 557.995 73.8165C556.602 79.7261 553.977 85.5018 554.285 91.5655C548.724 93.1548 543.071 94.4056 537.358 95.3109C534.68 95.733 531.587 95.9809 529.625 94.0848C528.795 93.1948 528.189 92.1199 527.857 90.9491C525.734 84.6709 526.444 77.5017 523.237 71.6993C521.896 69.3334 519.979 67.3449 517.665 65.9182C515.351 64.4916 512.714 63.673 509.999 63.5384C507.897 63.4647 505.506 63.9806 504.428 65.783C504.015 66.667 503.696 67.5923 503.478 68.5435C501.991 73.0259 495.905 75.2437 491.894 72.7445C489.885 71.4849 488.512 69.3944 486.698 67.8265C484.395 65.85 481.442 64.8315 478.857 63.2369C470.246 57.8968 478.007 52.3758 474.672 45.374Z" fill="#3F3D56"/>
<path d="M407.52 273.644C403.857 274.817 400.523 276.941 396.961 278.435C390.687 281.055 383.79 281.665 377.208 283.34C370.885 285.037 364.789 287.494 359.056 290.656C358.634 290.884 357.308 291.996 356.25 292.76C356.25 292.418 356.25 292.09 356.25 291.728C356.399 289.537 357.314 287.469 358.835 285.886C360.402 284.258 362.497 283.266 364.56 282.341C375.242 277.57 386.347 273.813 397.731 271.118C399.545 270.69 401.467 270.288 403.255 270.83C403.824 272.579 405.672 273.195 407.52 273.644Z" fill="#3F3D56"/>
<path opacity="0.1" d="M312.594 445.472C319.798 453.512 326.26 462.29 334.643 469.07C324.967 456.212 311.087 447.629 298.539 437.934C295.995 435.964 290.906 433.17 289.366 430.323C286.935 425.86 292.305 429.03 294.535 430.242C301.499 434.028 307.337 439.616 312.594 445.472Z" fill="#914646"/>
<path opacity="0.1" d="M571.822 210.776C571.48 213.671 570.402 216.418 569.311 219.111C566.632 225.811 563.76 232.445 559.716 238.388C556.93 242.482 553.616 246.18 550.71 250.18C547.727 254.426 544.99 258.84 542.514 263.4C537.948 271.494 533.497 279.655 529.163 287.882C527.094 291.822 525.038 295.795 522.366 299.353C520.492 301.755 518.479 304.045 516.34 306.214C511.653 311.159 506.839 315.729 502.647 321.089C500.572 323.769 497.11 324.801 493.876 325.712C492.794 326.072 491.667 326.275 490.528 326.315C489.381 326.235 488.253 325.984 487.18 325.571C483.568 324.468 480.034 323.125 476.601 321.551C475.824 306.71 474.063 291.815 477.94 277.598C479.098 273.403 480.732 269.356 482.044 265.209C484.609 257.122 485.272 248.76 485.915 240.371C486.711 238.689 487.562 237.021 488.385 235.399C493.97 224.357 498.677 212.197 497.224 199.888C496.854 197.669 496.597 195.433 496.454 193.188C496.468 190.435 496.931 187.704 497.826 185.101C499.83 178.953 503.143 173.314 507.536 168.571C511.928 163.828 517.297 160.096 523.27 157.63C525.157 156.748 527.214 156.29 529.297 156.29C531.975 156.43 534.539 157.824 537.151 157.315C545.996 161.208 553.154 167.854 558.504 175.908C563.854 183.962 564.148 194.722 569.967 202.441C571.688 204.786 572.156 207.888 571.822 210.776Z" fill="#914646"/>
<path d="M378.219 174.414L377.938 173.804L366.997 178.856L365.169 179.7L363.348 180.538L378.775 214.006L380.596 213.161L382.424 212.317L393.365 207.265L393.084 206.662L382.143 211.714L381.862 211.104L392.803 206.052L392.521 205.443L381.58 210.495L381.299 209.885L392.24 204.833L391.966 204.223L381.018 209.275L380.737 208.672L391.684 203.62L391.403 203.01L380.456 208.062L380.174 207.453L391.122 202.401L390.841 201.791L379.9 206.843L379.619 206.233L390.56 201.181L390.278 200.578L379.337 205.63L379.056 205.021L389.997 199.969L389.716 199.359L378.775 204.411L378.494 203.801L389.441 198.749L389.16 198.139L378.212 203.191L377.931 202.588L388.879 197.53L388.598 196.927L377.65 201.979L377.376 201.369L388.316 196.317L388.035 195.707L377.094 200.759L376.813 200.149L387.754 195.098L387.473 194.488L376.532 199.54L376.251 198.937L387.192 193.885L386.917 193.275L375.969 198.327L375.688 197.717L386.636 192.665L386.355 192.056L375.407 197.108L375.132 196.498L386.073 191.453L385.792 190.843L374.851 195.895L374.57 195.285L385.511 190.233L385.23 189.623L374.289 194.675L374.008 194.066L384.948 189.014L384.674 188.404L373.726 193.463L373.445 192.853L384.393 187.801L384.111 187.191L373.164 192.243L372.883 191.633L383.83 186.582L383.549 185.972L372.608 191.024L372.327 190.414L383.268 185.362L382.987 184.759L372.046 189.811L371.764 189.201L382.705 184.149L382.424 183.54L371.483 188.592L371.202 187.982L382.15 182.93L381.868 182.327L370.921 187.372L370.64 186.769L381.587 181.717L381.306 181.107L370.358 186.159L370.084 185.55L381.025 180.498L380.744 179.888L369.803 184.94L369.521 184.33L380.462 179.278L380.181 178.675L369.24 183.727L368.959 183.117L379.9 178.066L379.625 177.456L368.678 182.508L368.396 181.898L379.344 176.846L379.063 176.236L368.115 181.288L367.834 180.685L378.782 175.633L378.5 175.024L367.553 180.076L367.278 179.466L378.219 174.414Z" fill="#914646"/>
<path opacity="0.1" d="M412.569 248.023C411.156 250.415 408.993 252.492 406.308 253.195C402.96 254.06 399.063 252.385 397.604 249.249C396.706 247.306 396.747 245.081 396.7 242.944C396.626 238.758 396.177 234.587 395.36 230.481C394.945 228.424 394.39 226.287 392.99 224.733C391.182 222.723 388.303 222.053 385.625 222.006C382.491 221.965 379.056 222.816 377.228 225.356C375.762 227.406 375.507 230.287 373.559 231.889C372.693 232.553 371.663 232.972 370.579 233.101C368.369 233.377 366.13 232.903 364.221 231.755C362.311 230.607 360.842 228.852 360.047 226.77C359.431 225.001 359.129 222.803 357.456 221.972C356.585 221.537 355.547 221.617 354.616 221.336C351.764 220.471 351.014 216.853 350.753 213.885C350.452 210.408 351.61 203.54 347.291 203.305C342.671 203.051 337.308 205.737 333.029 207.165C330.284 208.27 327.057 209.543 324.532 207.995C322.678 206.85 321.914 204.471 322.028 202.294C322.142 200.116 322.972 198.052 323.628 195.975C324.753 192.464 325.429 188.819 326.461 185.255C325.976 186.263 325.544 187.297 325.168 188.35C323.682 192.578 322.986 197.061 321.62 201.309C320.95 203.386 320.133 205.449 320.019 207.627C319.905 209.805 320.689 212.183 322.524 213.329C325.048 214.877 328.275 213.604 331.02 212.498C335.299 211.071 340.662 208.384 345.283 208.639C349.601 208.873 348.443 215.741 348.744 219.218C349.005 222.187 349.755 225.805 352.608 226.669C353.538 226.95 354.576 226.87 355.447 227.306C357.121 228.136 357.455 230.334 358.038 232.103C358.833 234.185 360.302 235.941 362.212 237.088C364.121 238.236 366.36 238.71 368.571 238.435C369.655 238.306 370.684 237.887 371.55 237.222C373.499 235.621 373.753 232.739 375.219 230.689C377.047 228.136 380.482 227.285 383.616 227.339C386.294 227.379 389.207 228.049 390.981 230.066C392.381 231.621 392.937 233.758 393.352 235.815C394.169 239.921 394.617 244.092 394.691 248.277C394.738 250.415 394.691 252.639 395.595 254.582C397.048 257.718 400.951 259.393 404.299 258.529C406.978 257.825 409.147 255.748 410.56 253.356C411.635 251.403 412.463 249.323 413.024 247.165C412.877 247.473 412.729 247.748 412.569 248.023Z" fill="#914646"/>
<path d="M447.012 243.574C441.655 238.428 436.814 232.733 432.007 227.051C427.4 221.617 422.78 216.156 419.07 210.079C416.774 206.32 414.725 202.22 411.196 199.587C408.518 197.577 405.243 196.639 402.284 195.104C400.155 193.999 398.193 192.598 396.09 191.453C391.504 188.972 386.342 187.754 381.132 187.922C378.969 187.995 376.512 188.498 375.4 190.36C375.019 190.997 374.838 191.741 374.449 192.371C373.251 194.381 370.365 194.95 369.381 197.061C367.72 200.612 372.729 203.875 373.043 207.781C373.191 209.738 372.113 211.56 371.798 213.496C371.262 216.847 372.996 220.043 374.67 222.964C378.253 229.222 382.612 236.076 389.649 237.651C392.14 238.207 394.771 238.026 397.202 238.817C399.161 239.559 400.974 240.641 402.558 242.013C409.17 247.227 414.997 253.367 419.86 260.244C422.124 263.44 424.173 266.777 426.456 269.953C433.723 280.014 443.259 288.219 454.29 293.899L462.506 267.768C463.772 263.748 464.769 258.234 461.167 255.098C456.654 251.031 451.451 247.822 447.012 243.574Z" fill="#FBBEBE"/>
<path d="M536.448 153.992C533.836 154.494 531.245 153.107 528.594 152.966C526.511 152.966 524.454 153.423 522.567 154.306C516.594 156.774 511.227 160.507 506.834 165.25C502.442 169.992 499.129 175.631 497.123 181.777C496.237 184.391 495.78 187.131 495.771 189.891C495.811 192.136 496.28 194.347 496.541 196.592C497.994 208.88 493.287 221.048 487.709 232.103C484.622 238.207 481.14 244.646 481.87 251.447C481.964 252.358 482.111 253.383 481.556 254.127C480.886 255.011 479.44 255.058 478.817 255.989C478.194 256.921 478.763 258.328 478.268 259.38C477.598 260.867 475.415 260.686 473.855 260.157C469.579 258.709 465.618 256.457 462.185 253.524C456.62 256.773 450.668 260.646 448.84 266.824C448.41 268.4 448.113 270.009 447.949 271.634L445.077 295.621C444.695 298.797 444.508 302.522 446.905 304.64C451.036 308.298 458.395 303.561 462.814 306.871C463.946 307.715 464.682 308.975 465.492 310.121C470.32 316.747 478.629 319.662 486.423 322.181C487.497 322.589 488.625 322.837 489.771 322.918C490.911 322.886 492.04 322.683 493.119 322.315C496.36 321.404 499.815 320.345 501.891 317.698C506.089 312.338 510.903 307.769 515.59 302.824C517.726 300.652 519.738 298.361 521.617 295.963C524.295 292.398 526.344 288.425 528.413 284.485C532.738 276.257 537.184 268.097 541.751 260.003C544.253 255.461 547.014 251.068 550.02 246.843C552.933 242.823 556.241 239.138 559.026 235.051C563.044 229.101 565.929 222.441 568.621 215.774C569.713 213.094 570.791 210.327 571.139 207.439C571.487 204.552 571.018 201.449 569.264 199.124C563.445 191.399 563.157 180.645 557.807 172.591C552.457 164.538 545.3 157.878 536.448 153.992Z" fill="#E8E8F0"/>
<path d="M378.4 177.161C378.244 177.26 378.111 177.393 378.012 177.549C377.912 177.706 377.848 177.882 377.824 178.066C377.824 178.401 378.099 178.662 378.246 178.963C378.654 179.821 377.998 180.813 377.248 181.402C376.498 181.992 375.588 182.447 375.179 183.312C375.117 183.426 375.089 183.557 375.099 183.687C375.144 183.864 375.248 184.019 375.394 184.129C375.834 184.636 376.407 185.012 377.047 185.215C378.072 185.429 379.056 184.752 379.927 184.196C380.871 183.599 381.877 183.105 382.926 182.722C383.251 182.626 383.557 182.474 383.83 182.273C384.165 181.939 384.371 181.498 384.413 181.027C384.64 179.345 383.743 177.73 382.719 176.337C381.487 174.695 379.451 176.256 378.4 177.161Z" fill="#3F3D56"/>
<path d="M275.673 375.724L206.17 340.226C205.662 339.966 205.041 340.168 204.782 340.675L187.069 375.402C186.81 375.91 187.012 376.531 187.519 376.79L257.022 412.289C257.529 412.548 258.15 412.346 258.409 411.839L276.122 377.112C276.381 376.604 276.18 375.983 275.673 375.724Z" fill="#3F3D56"/>
<path d="M269.274 376.616L209.313 345.992L194.099 375.819L254.06 406.444L269.274 376.616Z" fill="#E8E8F0"/>
<path d="M200.387 360.242C200.57 359.883 200.278 359.367 199.735 359.089C199.191 358.812 198.602 358.878 198.419 359.237C198.236 359.596 198.528 360.113 199.071 360.39C199.615 360.668 200.204 360.601 200.387 360.242Z" fill="#E6E8EC"/>
<path d="M265.958 393.819C266.259 393.229 265.776 392.38 264.881 391.922C263.985 391.465 263.014 391.572 262.713 392.162C262.413 392.752 262.895 393.601 263.791 394.059C264.687 394.516 265.657 394.409 265.958 393.819Z" fill="#E6E8EC"/>
<g opacity="0.1">
<path opacity="0.1" d="M557.982 69.0995C556.589 75.0091 553.964 80.7848 554.272 86.8485C548.71 88.4378 543.058 89.6886 537.345 90.5939C534.667 91.016 531.573 91.2639 529.611 89.3678C528.782 88.4778 528.176 87.4029 527.844 86.232C525.721 79.9539 526.431 72.7847 523.224 66.9823C521.883 64.6164 519.966 62.6279 517.652 61.2013C515.338 59.7746 512.701 58.956 509.986 58.8214C507.884 58.7477 505.493 59.2636 504.415 61.066C504.002 61.95 503.683 62.8753 503.464 63.8265C501.978 68.3089 495.891 70.5267 491.881 68.0275C489.872 66.7679 488.499 64.6774 486.685 63.1095C484.381 61.133 481.428 60.1145 478.844 58.5199C476.514 57.086 475.395 55.6388 474.92 54.1446C474.331 57.3674 474.163 60.3289 478.844 63.21C481.428 64.8047 484.381 65.8231 486.685 67.7997C488.499 69.3541 489.845 71.458 491.881 72.7177C495.898 75.2035 501.978 72.9991 503.464 68.5166C503.683 67.5655 504.002 66.6402 504.415 65.7561C505.493 63.9538 507.884 63.4378 509.986 63.5115C512.701 63.6461 515.338 64.4647 517.652 65.8914C519.966 67.3181 521.883 69.3066 523.224 71.6724C526.431 77.4748 525.721 84.6441 527.844 90.9222C528.181 92.1028 528.796 93.1851 529.638 94.078C531.6 95.9541 534.7 95.7263 537.372 95.3042C543.085 94.3989 548.737 93.1481 554.299 91.5587C553.971 85.495 556.616 79.7194 558.008 73.8098C559.081 68.974 559.511 64.0177 559.287 59.0693C559.181 62.4474 558.743 65.8069 557.982 69.0995V69.0995Z" fill="#914646"/>
<path opacity="0.1" d="M475.322 47.2501C475.812 45.0463 475.577 42.7431 474.652 40.6838C473.808 38.915 471.418 37.7491 469.811 38.8681C468.204 39.987 468.432 42.4862 468.037 44.4963C467.273 48.4494 463.35 51.1429 459.332 51.7727C457.451 52.0742 455.355 51.9536 453.895 50.7342C452.955 49.8331 452.263 48.7046 451.886 47.4578C450.858 44.6711 450.233 41.7514 450.032 38.7877C449.692 43.3224 450.324 47.8776 451.886 52.1479C452.263 53.3948 452.955 54.5233 453.895 55.4244C455.355 56.6438 457.451 56.7644 459.332 56.4629C463.303 55.8331 467.247 53.1128 468.037 49.1864C468.418 47.1764 468.157 44.7442 469.818 43.5917C471.478 42.4393 473.835 43.6386 474.659 45.4075C474.946 45.9959 475.168 46.6137 475.322 47.2501Z" fill="#914646"/>
</g>
</g>
<defs>
<clipPath id="clip0">
<rect width="766" height="479" fill="white"/>
</clipPath>
</defs>
</svg>
