<svg width="339" height="339" viewBox="0 0 339 339" fill="none" xmlns="http://www.w3.org/2000/svg">
<path d="M169.5 294.372C217.869 294.372 257.079 287.512 257.079 279.049C257.079 270.587 217.869 263.727 169.5 263.727C121.131 263.727 81.9211 270.587 81.9211 279.049C81.9211 287.512 121.131 294.372 169.5 294.372Z" fill="#303042" fill-opacity="0.5"/>
<path d="M169.445 256.813C130.815 256.813 99.3999 225.509 99.3999 186.767V105.51H239.491V186.769C239.491 225.397 208.187 256.813 169.445 256.813Z" fill="#FFADAD"/>
<path d="M169.445 247.155C130.815 247.155 99.3999 215.851 99.3999 177.11V186.767C99.3999 225.397 130.704 256.813 169.445 256.813C208.076 256.813 239.491 225.509 239.491 186.767V177.11C239.491 215.74 208.187 247.155 169.445 247.155Z" fill="#FFADAD"/>
<path d="M169.445 257.829C130.261 257.829 98.3829 225.951 98.3829 186.767V105.51C98.3829 104.949 98.8382 104.493 99.3999 104.493H239.491C240.052 104.493 240.508 104.949 240.508 105.51V186.769C240.508 225.951 208.629 257.829 169.445 257.829ZM100.417 106.527V186.769C100.417 224.831 131.383 255.797 169.445 255.797C207.508 255.797 238.474 224.831 238.474 186.769V106.527H100.417Z" fill="black"/>
<path d="M240.046 113.614C239.824 109.84 239.602 105.954 239.491 102.18C192.868 104.4 146.023 104.067 99.5114 99.9599C99.1782 104.289 98.9561 108.619 98.6232 112.948C100.732 114.835 102.953 116.833 105.062 118.72C106.838 119.608 109.169 120.829 111.278 121.941C120.603 126.825 133.59 133.041 146.023 135.483C150.702 136.399 155.466 136.809 160.232 136.704C181.212 136.482 198.862 128.156 206.3 124.715C207.41 124.16 208.298 123.716 208.853 123.605C209.335 123.366 209.869 123.252 210.407 123.272C211.739 123.272 213.293 123.605 215.18 123.938C217.621 124.493 220.509 125.048 223.728 124.826C227.379 124.614 230.906 123.426 233.94 121.385C235.827 118.72 237.936 116.167 240.046 113.614Z" fill="#FFADAD"/>
<g opacity="0.34">
<path opacity="0.34" d="M99.4002 150.69H91.6297V158.016H99.4002V150.69Z" fill="#231A17"/>
<path opacity="0.34" d="M247.261 150.69H239.491V158.016H247.261V150.69Z" fill="#231A17"/>
</g>
<path d="M206.299 64.6514C206.299 64.6514 150.241 27.6861 103.84 68.9804C95.1817 76.6398 91.7405 87.6295 91.7405 97.7313V158.016H99.5111V119.164C99.5111 116.278 101.509 114.058 103.952 114.058C107.948 114.058 129.595 125.603 147.91 128.822C175.551 133.595 200.75 120.829 206.189 118.942C215.514 115.612 223.062 127.157 234.829 114.169H235.273C237.714 114.169 239.714 116.5 239.714 119.275V158.128H247.484V98.0642C247.261 84.9656 232.164 52.1073 206.299 64.6514Z" fill="#3F3D56"/>
<path d="M247.483 159.145H239.712C239.151 159.145 238.695 158.689 238.695 158.128V119.275C238.695 117.06 237.129 115.188 235.275 115.186C227.642 123.39 221.448 121.789 215.975 120.372C212.761 119.542 209.727 118.757 206.53 119.898C205.849 120.135 204.824 120.556 203.528 121.09C196.456 124.002 179.743 130.885 160.464 130.887C156.199 130.896 151.941 130.54 147.737 129.823C136.303 127.813 123.813 122.685 114.694 118.941C109.641 116.866 105.276 115.075 103.951 115.075C102.032 115.075 100.527 116.871 100.527 119.164V158.016C100.527 158.578 100.072 159.033 99.5104 159.033H91.7405C91.1788 159.033 90.7235 158.578 90.7235 158.016V97.7313C90.7235 85.971 95.2586 75.2139 103.167 68.2186C113.885 58.6809 126.018 52.5111 139.227 49.8855C149.785 47.7871 161.039 47.9383 172.676 50.3343C190.403 53.984 203.701 61.8356 206.37 63.4923C214.62 59.6535 222.431 59.9382 229.592 64.3398C241.525 71.6741 248.346 88.9254 248.5 98.0469V158.128C248.5 158.689 248.045 159.145 247.483 159.145C247.483 159.145 247.483 159.145 247.483 159.145ZM240.729 157.111H246.466V98.0642C246.316 89.2281 239.419 72.7683 228.526 66.0728C221.846 61.9664 214.517 61.7963 206.743 65.5663C206.42 65.7229 206.039 65.6978 205.74 65.5005C205.6 65.4087 191.61 56.2953 172.198 52.3134C160.836 49.9825 149.862 49.8387 139.584 51.889C126.751 54.4471 114.953 60.4532 104.516 69.7411C97.0428 76.3516 92.7575 86.5555 92.7575 97.732V156.999H98.4941V119.164C98.4941 115.73 100.891 113.041 103.952 113.041C105.602 113.041 109.035 114.419 115.467 117.06C124.501 120.769 136.872 125.849 148.087 127.82C171.876 131.928 193.513 123.017 202.754 119.209C204.081 118.663 205.127 118.232 205.856 117.979C209.633 116.631 213.116 117.532 216.485 118.402C221.957 119.817 227.127 121.154 234.075 113.484C234.268 113.272 234.542 113.15 234.829 113.15H235.273C238.282 113.15 240.731 115.896 240.731 119.273L240.729 157.111Z" fill="black"/>
<path d="M239.491 149.358V185.768C247.261 185.768 253.477 177.666 253.477 167.564C253.477 157.461 247.261 149.358 239.491 149.358Z" fill="#FFADAD"/>
<path d="M239.491 151.356V183.659C244.042 180.662 247.15 174.556 247.15 167.452C247.15 160.459 244.042 154.353 239.491 151.356Z" fill="#FFADAD"/>
<path d="M239.491 186.785C238.929 186.785 238.474 186.33 238.474 185.768V149.359C238.474 148.798 238.929 148.342 239.491 148.342C243.571 148.342 247.376 150.371 250.203 154.054C252.97 157.657 254.493 162.455 254.493 167.564C254.493 172.674 252.97 177.472 250.203 181.074C247.376 184.757 243.571 186.785 239.491 186.785ZM240.508 150.427V184.7C247.186 184.011 252.46 176.588 252.46 167.564C252.46 158.54 247.186 151.117 240.508 150.427Z" fill="black"/>
<path d="M99.5111 149.358V185.768C91.7405 185.768 85.5243 177.666 85.5243 167.564C85.4131 157.461 91.7405 149.358 99.5111 149.358Z" fill="#FFADAD"/>
<path d="M99.5111 152.022C95.5146 155.243 92.7396 161.013 92.7396 167.563C92.7396 174.112 95.4038 179.885 99.5111 183.104V152.022Z" fill="#FFADAD"/>
<path d="M99.5111 186.785C95.4309 186.785 91.6256 184.757 88.797 181.073C86.0304 177.471 84.5069 172.673 84.5069 167.563C84.4422 161.66 86.4887 156.161 90.1218 152.488C92.766 149.814 96.1014 148.341 99.5121 148.341C100.074 148.341 100.529 148.796 100.529 149.358V185.767C100.53 186.328 100.075 186.784 99.5134 186.785C99.5127 186.785 99.5117 186.785 99.5111 186.785ZM98.4941 150.426C95.9678 150.678 93.5911 151.873 91.5676 153.917C88.3132 157.205 86.4826 162.176 86.5409 167.55C86.5409 176.585 91.8158 184.008 98.4941 184.697V150.426Z" fill="black"/>
<path d="M172.887 196.887C172.807 196.887 172.728 196.878 172.65 196.859C170.192 196.269 167.74 196.224 165.768 196.188C163.037 196.138 160.88 196.099 160.88 194.205C160.88 194.104 160.894 194.004 160.923 193.908L165.586 178.7C165.758 178.166 166.331 177.872 166.866 178.044C167.389 178.213 167.683 178.768 167.53 179.296L163.026 193.988C163.947 194.112 164.876 194.168 165.806 194.156C167.873 194.193 170.45 194.241 173.124 194.882C173.67 195.013 174.007 195.561 173.877 196.108C173.768 196.566 173.358 196.889 172.887 196.889L172.887 196.887Z" fill="#3F3D56"/>
<path d="M171.017 228.35C169.908 228.353 168.802 228.257 167.71 228.063C167.154 227.983 166.768 227.468 166.847 226.912C166.927 226.356 167.442 225.97 167.998 226.049C168.023 226.052 168.048 226.057 168.072 226.062C174.218 227.175 181.749 224.64 186.811 219.757C190.603 216.098 192.357 211.766 191.75 207.56C191.67 207.004 192.055 206.488 192.611 206.408C193.167 206.328 193.683 206.713 193.763 207.269C194.466 212.141 192.498 217.096 188.223 221.221C183.586 225.695 177.012 228.35 171.017 228.35Z" fill="#3F3D56"/>
<path d="M144.247 166.459C141.489 166.459 139.246 164.066 139.246 161.125C139.246 158.183 141.489 155.791 144.247 155.791C147.005 155.791 149.248 158.183 149.248 161.125C149.248 164.066 147.005 166.459 144.247 166.459ZM144.247 156.469C141.863 156.469 139.924 158.557 139.924 161.125C139.924 163.692 141.863 165.781 144.247 165.781C146.631 165.781 148.57 163.692 148.57 161.125C148.57 158.557 146.631 156.469 144.247 156.469Z" fill="black"/>
<path d="M144.247 166.12C146.822 166.12 148.909 163.883 148.909 161.125C148.909 158.366 146.822 156.13 144.247 156.13C141.672 156.13 139.585 158.366 139.585 161.125C139.585 163.883 141.672 166.12 144.247 166.12Z" fill="#441A36"/>
<path d="M128.15 151.596C127.588 151.595 127.133 151.14 127.134 150.578C127.134 150.339 127.219 150.108 127.372 149.925C129.976 146.825 135.719 144.9 142.359 144.9C147.484 144.9 152.184 146.097 155.253 148.184C155.712 148.508 155.821 149.143 155.497 149.601C155.181 150.049 154.568 150.165 154.11 149.866C151.369 148.001 147.086 146.934 142.359 146.934C136.395 146.934 131.124 148.621 128.929 151.233C128.736 151.463 128.451 151.596 128.15 151.596Z" fill="#441A36"/>
<path d="M195.31 166.459C192.552 166.459 190.309 164.066 190.309 161.125C190.309 158.183 192.552 155.791 195.31 155.791C198.068 155.791 200.311 158.183 200.311 161.125C200.311 164.066 198.068 166.459 195.31 166.459ZM195.31 156.469C192.926 156.469 190.987 158.557 190.987 161.125C190.987 163.692 192.926 165.781 195.31 165.781C197.694 165.781 199.633 163.692 199.633 161.125C199.633 158.557 197.694 156.469 195.31 156.469Z" fill="black"/>
<path d="M195.31 166.12C197.885 166.12 199.972 163.883 199.972 161.125C199.972 158.366 197.885 156.13 195.31 156.13C192.735 156.13 190.648 158.366 190.648 161.125C190.648 163.883 192.735 166.12 195.31 166.12Z" fill="#441A36"/>
<path d="M211.406 151.596C211.106 151.596 210.82 151.463 210.627 151.233C208.433 148.623 203.161 146.934 197.197 146.934C192.47 146.934 188.187 148.002 185.447 149.866C184.976 150.173 184.346 150.041 184.039 149.572C183.739 149.113 183.856 148.5 184.303 148.184C187.373 146.097 192.072 144.9 197.197 144.9C203.837 144.9 209.58 146.825 212.184 149.925C212.545 150.355 212.49 150.996 212.06 151.358C211.877 151.512 211.645 151.596 211.406 151.596Z" fill="#441A36"/>
<path d="M222.734 201.28C222.734 195.16 222.734 189.041 222.734 182.922C187.247 179.854 151.561 179.854 116.075 182.922V201.28C116.075 226.741 139.951 247.381 169.404 247.381C198.857 247.381 222.734 226.741 222.734 201.28Z" fill="#A4FCEF"/>
<path d="M222.734 201.28C222.734 195.16 222.734 189.041 222.734 182.922C187.247 179.854 151.561 179.854 116.075 182.922V201.28C116.075 226.741 139.951 247.381 169.404 247.381C198.857 247.381 222.734 226.741 222.734 201.28Z" fill="white"/>
<path d="M169.404 231.524C139.955 231.524 116.08 214.868 116.075 194.321V201.28C116.075 226.741 139.952 247.381 169.405 247.381C198.857 247.381 222.734 226.741 222.734 201.28V194.315C222.734 214.865 198.857 231.524 169.404 231.524Z" fill="#EAEAEA"/>
<path d="M116.076 194.315L116.075 194.314V194.315H116.076Z" fill="#8FEFDF"/>
<path d="M222.734 194.315V194.314L222.734 194.315H222.734Z" fill="#8FEFDF"/>
<path d="M222.735 191.464C222.706 191.464 222.676 191.464 222.646 191.46C187.217 188.414 151.592 188.414 116.162 191.46C115.603 191.509 115.11 191.094 115.062 190.535C115.014 189.975 115.428 189.482 115.988 189.434C151.533 186.378 187.275 186.378 222.821 189.434C223.381 189.482 223.796 189.975 223.748 190.534C223.702 191.06 223.263 191.464 222.735 191.464Z" fill="#3F3D56"/>
<path d="M169.405 248.398C139.437 248.398 115.058 227.261 115.058 201.28V182.922C115.058 182.395 115.461 181.954 115.987 181.909C151.533 178.844 187.276 178.844 222.821 181.909C223.347 181.954 223.751 182.395 223.751 182.922V201.28C223.751 213.894 218.079 225.744 207.779 234.648C197.522 243.515 183.894 248.398 169.405 248.398ZM117.092 183.856V201.281C117.092 213.295 122.514 224.599 132.36 233.11C142.248 241.658 155.404 246.365 169.405 246.365C198.25 246.365 221.717 226.14 221.717 201.28V183.856C186.904 180.906 151.905 180.907 117.092 183.856Z" fill="#3F3D56"/>
<path d="M169.405 208.089C152.636 208.089 136.962 205.486 128.497 201.297C127.992 201.051 127.782 200.442 128.028 199.937C128.274 199.432 128.883 199.222 129.388 199.468C129.392 199.47 129.396 199.472 129.4 199.474C137.6 203.533 152.93 206.054 169.405 206.054C185.88 206.054 201.209 203.533 209.41 199.474C209.915 199.228 210.523 199.438 210.77 199.943C211.013 200.443 210.81 201.046 210.312 201.297C201.848 205.486 186.173 208.089 169.405 208.089Z" fill="#3F3D56"/>
<path d="M169.405 226.909C154.458 226.909 140.48 224.299 132.926 220.095C132.435 219.822 132.258 219.202 132.531 218.711C132.805 218.22 133.424 218.043 133.915 218.316C141.185 222.361 154.784 224.874 169.405 224.874C184.026 224.874 197.624 222.362 204.893 218.316C205.388 218.05 206.005 218.234 206.271 218.729C206.532 219.214 206.36 219.819 205.882 220.093C198.329 224.298 184.352 226.909 169.405 226.909Z" fill="#3F3D56"/>
<path d="M218.553 220.223C217.992 220.223 217.536 219.768 217.536 219.206C217.536 218.92 217.656 218.647 217.868 218.454C231.235 206.257 237.845 187.46 238.475 185.603V154.851L223.638 183.392C223.379 183.89 222.764 184.084 222.266 183.825C221.768 183.566 221.574 182.952 221.833 182.453L238.59 150.221C238.849 149.723 239.462 149.528 239.961 149.787C240.297 149.962 240.509 150.311 240.509 150.69V185.768C240.509 185.874 240.492 185.979 240.459 186.08C240.188 186.921 233.649 206.807 219.238 219.957C219.051 220.128 218.807 220.223 218.553 220.223Z" fill="#3F3D56"/>
<path d="M120.449 220.223C120.196 220.223 119.951 220.128 119.764 219.957C105.354 206.807 98.8138 186.921 98.5426 186.08C98.51 185.979 98.4934 185.874 98.4934 185.768V150.69C98.4934 150.129 98.9487 149.673 99.5101 149.673C99.8898 149.673 100.238 149.884 100.413 150.221L117.17 182.453C117.429 182.952 117.235 183.566 116.736 183.825C116.238 184.084 115.624 183.89 115.365 183.392L100.527 154.851V185.603C101.157 187.459 107.767 206.256 121.135 218.454C121.549 218.833 121.579 219.476 121.2 219.891C121.007 220.102 120.735 220.222 120.449 220.222L120.449 220.223Z" fill="#3F3D56"/>
</svg>
