<?xml version="1.0" standalone="no"?>
<!DOCTYPE svg PUBLIC "-//W3C//DTD SVG 20010904//EN"
 "http://www.w3.org/TR/2001/REC-SVG-20010904/DTD/svg10.dtd">
<svg version="1.0" xmlns="http://www.w3.org/2000/svg"
 width="602.000000pt" height="415.000000pt" viewBox="0 0 602.000000 415.000000"
 preserveAspectRatio="xMidYMid meet">
<metadata>
Created by potrace 1.16, written by Peter Selinger 2001-2019
</metadata>
<g transform="translate(0.000000,415.000000) scale(0.100000,-0.100000)"
fill="#ffffff" stroke="none">
<path d="M1220 3864 c-244 -44 -367 -92 -454 -181 -120 -121 -122 -237 -4
-319 49 -33 133 -53 150 -36 20 20 3 47 -42 63 -68 25 -67 73 0 135 85 79 187
129 350 172 83 22 116 25 265 25 151 1 177 -2 230 -21 100 -38 152 -107 127
-172 -18 -47 -99 -125 -175 -168 -71 -41 -201 -92 -233 -92 -8 0 6 20 31 44
25 25 45 48 45 51 0 4 22 31 48 61 79 89 83 143 16 227 -50 64 -118 75 -113
20 6 -65 -29 -115 -194 -281 -70 -71 -133 -125 -147 -128 -44 -9 -55 -20 -55
-56 -1 -37 -53 -113 -86 -123 -9 -3 -77 -17 -150 -30 -292 -52 -485 -136 -582
-253 -117 -140 -27 -324 205 -420 51 -21 74 -37 100 -72 42 -55 83 -73 104
-45 8 10 14 31 14 46 0 33 7 36 115 44 106 8 311 41 405 65 156 40 388 136
484 202 89 61 186 191 186 251 0 45 8 53 45 49 19 -2 35 -9 35 -16 0 -6 -19
-36 -43 -66 -79 -100 -93 -173 -47 -247 23 -38 90 -83 124 -83 27 0 129 50
201 99 55 37 65 38 65 8 0 -35 56 -113 94 -131 66 -31 97 -23 199 52 33 24 60
42 61 40 1 -2 10 -22 21 -46 21 -48 72 -98 111 -108 30 -8 36 -2 53 51 30 92
172 265 250 304 22 12 65 39 97 61 31 22 80 48 108 59 58 21 150 36 166 26 6
-4 -7 -31 -34 -69 -25 -34 -58 -90 -75 -124 -16 -35 -50 -85 -75 -112 -50 -54
-58 -88 -32 -138 53 -101 242 -151 409 -107 65 17 173 69 232 113 76 55 187
165 221 219 26 42 39 53 60 53 l25 0 -23 -31 c-102 -137 -130 -228 -89 -294
26 -43 111 -125 139 -136 73 -28 210 23 400 149 48 31 92 61 100 65 8 6 6 -6
-7 -32 -34 -66 -24 -106 42 -169 37 -35 73 -40 87 -12 50 101 72 136 123 200
89 110 216 216 322 265 44 21 73 28 128 29 l71 1 7 -33 c9 -42 15 -48 34 -32
44 37 63 152 36 218 -31 73 -94 68 -228 -21 l-98 -65 -16 36 c-20 45 -73 97
-114 112 -25 9 -31 8 -42 -6 -7 -10 -13 -24 -13 -31 0 -37 -94 -173 -155 -225
-17 -14 -92 -61 -233 -145 -65 -39 -263 -134 -320 -154 -103 -35 -124 -20 -83
60 28 53 36 58 126 66 73 6 137 21 190 45 111 48 143 64 181 90 25 16 47 30
50 30 3 0 21 16 41 35 31 30 36 41 35 75 -3 74 -51 133 -140 172 -38 17 -50
18 -95 8 -88 -20 -192 -69 -298 -140 -56 -36 -130 -56 -164 -44 -8 4 -15 18
-15 34 0 92 -112 195 -226 208 -24 2 -44 8 -44 12 0 4 10 19 23 33 12 14 31
37 42 51 11 15 25 32 30 39 6 6 21 28 34 47 13 19 35 45 48 58 42 41 27 109
-39 175 -27 26 -47 37 -68 37 -27 0 -30 -4 -36 -41 -4 -22 -12 -46 -18 -52 -6
-7 -31 -43 -54 -82 -24 -38 -59 -90 -78 -115 -18 -25 -45 -61 -58 -80 -14 -19
-41 -53 -61 -75 l-36 -40 -27 33 c-25 30 -31 32 -90 32 -85 0 -137 -23 -254
-113 l-37 -28 -16 38 c-9 21 -30 53 -48 71 -30 31 -91 57 -109 46 -5 -3 -20
-30 -33 -60 -39 -89 -108 -171 -190 -229 -31 -22 -85 -62 -119 -90 -69 -56
-110 -86 -144 -104 -23 -12 -23 -12 -8 16 8 15 50 69 94 120 80 92 80 93 70
129 -9 33 -7 39 16 61 59 55 19 155 -81 204 -39 19 -64 24 -134 24 -77 0 -92
-3 -148 -32 -92 -47 -146 -82 -213 -138 -98 -81 -87 -77 -151 -55 -31 11 -63
20 -72 20 -8 0 -44 27 -80 59 -36 33 -92 72 -123 87 l-57 27 95 31 c151 50
240 114 275 200 43 103 -56 300 -189 377 -46 27 -131 57 -211 75 -35 8 -328
14 -365 8z m358 -764 c70 -32 95 -55 50 -46 -13 3 -45 9 -73 15 -27 5 -107 13
-177 17 -129 6 -145 12 -115 43 9 10 41 12 128 9 105 -5 123 -8 187 -38z m997
-45 c0 -16 -8 -21 -37 -23 -26 -2 -39 -9 -43 -22 -8 -25 -61 -91 -89 -109 -45
-31 -101 -71 -141 -100 -22 -17 -51 -35 -65 -41 -14 -6 -47 -26 -75 -44 -68
-43 -104 -61 -111 -53 -6 6 112 157 146 187 87 76 200 159 260 191 61 32 79
38 120 36 28 -2 35 -6 35 -22z m-975 -87 c47 -6 87 -12 89 -14 2 -2 -7 -17
-20 -33 -13 -16 -32 -41 -42 -55 -43 -62 -264 -182 -432 -235 -127 -40 -151
-47 -201 -60 -60 -16 -208 -41 -212 -36 -7 7 41 78 88 131 25 28 73 86 107
130 34 43 85 103 113 132 l51 52 187 0 c103 0 225 -5 272 -12z m2346 1 c3 -6
-9 -41 -27 -77 l-34 -66 -104 -18 c-57 -9 -124 -24 -149 -32 -25 -9 -48 -13
-51 -10 -6 6 87 96 138 132 86 62 209 100 227 71z m-3134 -96 c-22 -27 -79
-106 -127 -178 -125 -186 -125 -186 -182 -179 -56 6 -143 31 -160 46 -24 20
-14 65 25 115 50 62 95 96 196 146 71 36 236 94 274 96 8 1 -4 -20 -26 -46z
m2916 -216 c-73 -67 -154 -116 -241 -144 -72 -24 -137 -30 -137 -13 0 24 188
140 228 140 8 0 26 7 40 15 26 15 136 53 157 54 6 0 -15 -23 -47 -52z"/>
<path d="M2870 2400 c-94 -13 -284 -81 -441 -160 -173 -87 -227 -128 -394
-295 -117 -116 -177 -198 -243 -330 -51 -102 -61 -133 -68 -215 -15 -154 57
-292 200 -388 103 -69 196 -97 321 -97 105 0 101 -1 292 76 66 26 190 99 254
148 52 40 59 38 52 -16 -8 -72 23 -138 85 -180 66 -46 200 -77 271 -63 103 19
185 64 341 185 25 19 55 40 68 47 12 6 22 14 22 18 0 4 9 18 21 31 11 13 37
50 56 82 34 54 38 57 75 57 35 0 38 -2 28 -19 -5 -11 -15 -23 -20 -26 -6 -4
-33 -40 -60 -81 -28 -41 -63 -89 -79 -106 -40 -46 -56 -100 -42 -141 16 -46
79 -106 123 -118 47 -12 103 10 181 71 29 22 62 48 74 58 13 9 35 27 49 40 14
13 28 21 31 18 3 -3 -17 -42 -45 -88 -71 -118 -142 -295 -142 -355 0 -58 60
-132 141 -173 53 -28 84 -25 157 12 82 42 209 172 242 247 6 13 13 21 16 18 3
-3 -2 -20 -12 -39 -22 -42 -25 -163 -5 -202 8 -15 38 -43 65 -63 72 -52 142
-57 217 -17 152 83 296 295 361 534 17 61 21 110 24 263 2 186 3 189 29 227
30 43 47 50 123 50 57 0 229 36 250 53 17 13 15 44 -4 51 -9 3 -63 6 -120 6
-57 0 -104 4 -104 8 0 4 33 48 73 97 l72 89 120 3 c66 1 142 8 170 15 63 17
78 41 72 123 -7 101 -54 163 -87 114 -28 -42 -85 -90 -115 -98 -29 -8 -30 -7
-44 42 -10 34 -29 64 -63 99 -41 42 -53 49 -80 46 -30 -3 -33 -6 -36 -42 -4
-47 -92 -185 -216 -336 -83 -102 -84 -103 -108 -85 -31 21 -60 19 -94 -7 -25
-20 -40 -23 -107 -21 -43 1 -81 4 -84 6 -4 5 100 145 218 292 34 43 39 55 35
85 -11 74 -113 169 -153 144 -10 -6 -21 -26 -24 -45 -3 -19 -13 -47 -21 -64
-37 -69 -257 -355 -274 -355 -6 0 -17 7 -24 15 -19 23 -54 18 -82 -12 -52 -57
-63 -111 -27 -136 20 -15 19 -17 -50 -109 -70 -93 -149 -170 -271 -264 -82
-64 -208 -154 -215 -154 -20 0 5 35 181 245 50 61 96 120 103 132 17 33 13 64
-14 112 -14 23 -25 44 -25 45 0 0 15 2 33 3 37 1 173 88 212 135 29 34 31 55
11 102 -36 85 -147 162 -200 138 -21 -9 -24 -19 -28 -79 -3 -53 -12 -84 -42
-143 -35 -71 -37 -83 -21 -122 6 -15 3 -16 -23 -6 -35 13 -62 -1 -62 -32 0
-36 -31 -90 -59 -105 -23 -12 -43 -13 -91 -6 -62 8 -80 20 -80 54 0 24 -76
105 -120 127 -79 41 -175 34 -253 -16 -46 -30 -61 -25 -18 5 35 25 48 56 31
76 -18 22 -44 18 -71 -11 -28 -30 -215 -163 -304 -215 -33 -20 -116 -65 -185
-101 -69 -36 -147 -77 -173 -91 -75 -40 -278 -112 -386 -137 -126 -29 -290 12
-328 82 -25 46 -23 153 5 244 24 79 91 207 160 303 48 68 175 200 257 267 116
95 414 240 579 283 54 14 111 21 177 21 89 0 101 -2 126 -24 l27 -24 -38 -77
c-42 -84 -131 -182 -264 -288 -39 -32 -72 -64 -72 -73 0 -8 11 -19 24 -25 20
-9 36 -7 83 11 251 95 403 233 403 366 0 93 -70 184 -175 227 -56 23 -86 29
-179 32 -61 2 -140 0 -176 -5z m2023 -946 l28 -26 -37 -51 c-97 -135 -128
-180 -304 -447 -9 -14 -22 -40 -29 -57 -8 -18 -17 -33 -22 -33 -12 0 -12 4 13
100 18 70 22 115 23 257 1 170 2 172 29 211 30 44 47 51 121 53 40 0 110 9
145 18 3 0 18 -11 33 -25z m-1452 -98 c19 -7 42 -16 52 -19 17 -6 16 -9 -5
-39 -86 -125 -301 -287 -398 -300 -23 -3 -25 0 -23 30 3 70 122 225 221 289
89 57 102 60 153 39z m1034 -143 c-2 -16 -6 -50 -9 -76 -7 -61 -60 -215 -99
-287 -55 -103 -130 -200 -214 -280 -46 -44 -89 -80 -95 -80 -18 0 1 49 77 205
112 227 308 544 337 545 4 0 6 -12 3 -27z m515 -82 c0 -26 -9 -77 -20 -111
-11 -34 -20 -68 -20 -74 0 -6 -20 -55 -44 -109 -67 -147 -201 -318 -296 -376
-44 -27 -53 -26 -45 2 9 27 128 271 154 312 10 17 44 75 76 130 50 86 98 161
164 252 24 34 31 28 31 -26z"/>
<path d="M1995 2332 c-36 -22 -121 -114 -141 -154 -8 -15 -18 -28 -23 -28 -42
0 -442 -33 -536 -44 -322 -39 -588 -107 -705 -181 -71 -45 -88 -142 -32 -185
33 -27 44 -26 191 16 223 65 452 123 596 153 145 30 295 48 295 35 0 -8 -85
-112 -113 -136 -11 -11 -35 -18 -59 -18 -64 0 -111 -32 -194 -133 -252 -307
-294 -362 -294 -387 0 -25 41 -78 74 -97 51 -30 69 -16 250 202 32 39 116 131
186 205 71 74 157 169 191 209 124 145 181 201 217 210 19 6 43 18 53 27 23
21 25 81 3 112 -14 20 -13 25 1 56 12 25 31 41 71 60 55 26 63 40 44 77 -13
24 -36 24 -75 1z"/>
</g>
</svg>
